<svg xmlns="http://www.w3.org/2000/svg" width="24" height="24" viewBox="0 0 24 24" fill="none">
  <path fill="#fff" d="M12 7.4a4.6 4.6 0 1 0 0 9.2 4.6 4.6 0 0 0 0-9.2Zm0 7.6a3 3 0 1 1 0-6 3 3 0 0 1 0 6Zm5.9-7.8a1.1 1.1 0 1 1-2.2 0 1.1 1.1 0 0 1 2.2 0Z"/>
  <path fill="#fff" fill-rule="evenodd" d="M7.2 2.8h9.6c2.4 0 4.4 2 4.4 4.4v9.6c0 2.4-2 4.4-4.4 4.4H7.2a4.4 4.4 0 0 1-4.4-4.4V7.2c0-2.4 2-4.4 4.4-4.4Zm9.6 16.8c1.6 0 2.8-1.2 2.8-2.8V7.2c0-1.6-1.2-2.8-2.8-2.8H7.2c-1.6 0-2.8 1.2-2.8 2.8v9.6c0 1.6 1.2 2.8 2.8 2.8h9.6Z" clip-rule="evenodd"/>
</svg>
